<svg   xmlns="http://www.w3.org/2000/svg" viewBox="0 0 137 28">
<defs>
<style>.seccls-1{fill:#5938a0;}.seccls-2,.seccls-3{fill:#6f42c1;}.seccls-3,.seccls-4,.seccls-5{fill-rule:evenodd;}.seccls-4{fill:#fff;}.seccls-5{fill:#030000;}</style>
</defs>
<title>Secret Chain_logo</title>
<path class="seccls-1" d="M94.05,16.17c0,2.78,1.77,4.45,4.9,4.45q3.76,0,4.74-3a.41.41,0,0,0-.17-.54l-.13,0-.72-.26c-.33-.13-.47-.05-.6.29-.43,1.34-1.36,2-3.12,2-2,0-3.2-1.06-3.2-2.86v-4c0-1.81,1.12-2.86,3.2-2.86,1.74,0,2.67.63,3.11,1.94.12.33.26.41.59.28l.72-.24a.41.41,0,0,0,.33-.49.29.29,0,0,0,0-.1c-.65-2-2.23-3-4.72-3-3.13,0-4.9,1.69-4.9,4.46Z"/><path class="seccls-1" d="M105.14,7.38c-.3,0-.42.09-.42.42V19.93c0,.33.12.42.42.42h.74c.29,0,.4-.12.4-.42v-7a5.21,5.21,0,0,1,2.24-.4c1.47,0,2.21.7,2.21,2.08V20c0,.33.09.42.42.42h.72c.3,0,.42-.09.42-.42V14.51q0-3.47-3.56-3.47a5.69,5.69,0,0,0-2.45.39V7.8c0-.3-.11-.42-.4-.42Z"/><path class="seccls-1" d="M113.69,12.9a.38.38,0,0,0,.09.54.27.27,0,0,0,.14.07l.54.25c.34.12.37.07.58-.22a2.31,2.31,0,0,1,2.18-1.1c1.54,0,2.08.76,2.08,2.15v.68a16.65,16.65,0,0,0-2-.12c-2.82,0-3.91.72-3.91,2.72a2.47,2.47,0,0,0,.83,2.07,4.79,4.79,0,0,0,3,.68,8,8,0,0,0,3-.45c.49-.21.63-.38.63-1V14.64c0-2.25-1-3.6-3.63-3.6a3.62,3.62,0,0,0-3.56,1.86m5.61,5.83a.37.37,0,0,1-.26.37,6.74,6.74,0,0,1-2,.21c-1.63,0-2.12-.46-2.12-1.44s.54-1.44,2.16-1.44c.51,0,1.24.05,2.17.14Z"/><path class="seccls-1" d="M122.33,8c-.63,0-.84.21-.84.84V9c0,.65.21.84.84.84h.11c.65,0,.84-.21.84-.84V8.87c0-.63-.19-.84-.84-.84h-.11M122,11.31c-.34,0-.43.09-.43.43v8.19c0,.33.09.42.43.42h.73c.34,0,.42-.09.42-.42V11.74c0-.34-.08-.43-.42-.43Z"/><path class="seccls-1" d="M124.93,11.64a.85.85,0,0,0-.67,1h0V20c0,.3.11.42.41.42h.73c.33,0,.42-.09.42-.42V13.11a.31.31,0,0,1,.21-.32,6.48,6.48,0,0,1,2-.31c1.46,0,2.19.7,2.19,2.08v5.37c0,.33.13.42.42.42h.74c.3,0,.42-.09.42-.42V14.51q0-3.47-3.56-3.47A8.71,8.71,0,0,0,124.93,11.64Z"/>
<path class="seccls-1" d="M40.59,11.26A2.8,2.8,0,0,0,42.12,14a3.28,3.28,0,0,0,1,.38,12.2,12.2,0,0,0,2.16.37,8.26,8.26,0,0,1,2.14.46,1.5,1.5,0,0,1,1,1.48c0,1.44-1,2.15-3.16,2.15a3.19,3.19,0,0,1-3.17-2c-.14-.33-.3-.4-.6-.28l-.71.26c-.35.12-.42.26-.3.59.79,2,2.21,3,4.78,3,3.11,0,4.86-1.43,4.86-3.77a3.16,3.16,0,0,0-.93-2.38,3.53,3.53,0,0,0-1-.61,8.86,8.86,0,0,0-2.44-.52,7.91,7.91,0,0,1-1.93-.35c-.87-.26-1.44-.73-1.44-1.64,0-1.31,1-2,2.93-2a3,3,0,0,1,3,1.76c.16.33.27.36.6.22l.74-.33a.39.39,0,0,0,.3-.46.35.35,0,0,0-.06-.14C49,8.36,47.69,7.51,45.3,7.51,42.29,7.56,40.59,9,40.59,11.26Z"/><path class="seccls-1" d="M50.72,16.82c0,2.21,1.28,3.61,3.89,3.61,1.82,0,3.08-.59,3.77-1.79a.41.41,0,0,0,0-.59.42.42,0,0,0-.14-.09l-.48-.24c-.3-.19-.47-.14-.68.16a2.62,2.62,0,0,1-2.44,1.19c-1.52,0-2.35-.74-2.35-2.07v-.83H58c.44,0,.65-.21.65-.61v-1c0-2.22-1.37-3.68-4-3.68s-4,1.37-4,3.8v2.17M57.07,15h-4.8v-.52a2.11,2.11,0,0,1,1.95-2.27,2.26,2.26,0,0,1,.45,0A2.12,2.12,0,0,1,57.06,14a2.46,2.46,0,0,1,0,.47Z"/><path class="seccls-1" d="M59.41,16.89c0,2.25,1.28,3.54,3.82,3.54A3.65,3.65,0,0,0,67.07,18a.43.43,0,0,0-.21-.57l-.09,0-.62-.18c-.33-.12-.45,0-.59.28A2.14,2.14,0,0,1,63.26,19c-1.49,0-2.26-.75-2.26-2V14.31c0-1.32.79-2.07,2.28-2.07a2.1,2.1,0,0,1,2.28,1.47c.12.32.31.4.6.28l.61-.19a.4.4,0,0,0,.32-.48.56.56,0,0,0,0-.12c-.49-1.56-1.72-2.35-3.7-2.35-2.61,0-3.92,1.3-3.92,3.53Z"/><path class="seccls-1" d="M71.83,10.85a9.75,9.75,0,0,0-3.21.54.86.86,0,0,0-.66,1v7.36c0,.3.1.42.4.42h.74c.33,0,.42-.09.42-.42V13a.33.33,0,0,1,.24-.35,6.78,6.78,0,0,1,2-.3h.61c.33,0,.42-.12.42-.42v-.6c0-.3-.09-.42-.42-.42Z"/><path class="seccls-1" d="M73.88,16.82c0,2.21,1.28,3.61,3.89,3.61,1.82,0,3.08-.59,3.77-1.79a.41.41,0,0,0,0-.59.42.42,0,0,0-.14-.09l-.48-.24c-.3-.19-.47-.14-.68.16a2.62,2.62,0,0,1-2.44,1.19c-1.52,0-2.34-.74-2.34-2.07v-.83h5.71c.44,0,.65-.21.65-.61v-1c0-2.22-1.37-3.68-4-3.68s-4,1.37-4,3.8v2.17M80.24,15h-4.8v-.52a2.4,2.4,0,1,1,4.8,0h0Z"/><path class="seccls-1" d="M84.85,9c-.3,0-.41.09-.41.42V11.1H83c-.3,0-.42.09-.42.43v.61c0,.3.12.42.42.42h1.45v4.13a3.92,3.92,0,0,0,.86,3,4.11,4.11,0,0,0,3,.75c.34,0,.44-.12.44-.42V19.4c0-.34-.1-.43-.44-.43a2.61,2.61,0,0,1-1.78-.45A2.54,2.54,0,0,1,86,16.68v-4.1h2.3c.3,0,.4-.12.4-.42v-.61c0-.3-.1-.43-.4-.43H86V9.44c0-.33-.12-.42-.42-.42Z"/><rect class="seccls-2" x="5.79" y="0.4" width="27.21" height="27.21" rx="13.6"/><path class="seccls-3" d="M14.94,11.41a1.36,1.36,0,0,0,.89.86v.14c-.16,0-.34.13-.5,0A1,1,0,0,1,14.94,11.41Z"/><path class="seccls-3" d="M18.24,12.36a1.34,1.34,0,0,0,.9-.86,1,1,0,0,1-.33,1,.51.51,0,0,1-.53,0Z"/><path class="seccls-4" d="M14.94,9.09a4.94,4.94,0,0,1,4.25-2.23,4.34,4.34,0,0,1,3.49,1.62c-.58.3-.1,1.32.51,1.15a.83.83,0,0,1,.22-.08A4.78,4.78,0,0,1,23.7,11a6.7,6.7,0,0,1-.23,2.4c-.1.28-.24.62,0,.89a2,2,0,0,1-.08,2.14,2.52,2.52,0,0,1-1.16.67,5.23,5.23,0,0,1-1.52.28,1.07,1.07,0,0,0-.08-.84,2.49,2.49,0,0,0,1.4-1c.1-.09-.06-.32-.14-.16a2.33,2.33,0,0,1-1.63.84c-.29-.07-.63-.21-.9,0a1,1,0,0,0,0,1.67.93.93,0,0,0,1.17-.28,5.79,5.79,0,0,0,1.5-.15,1.07,1.07,0,0,0-.18.81c.42,0,.81-.26,1.24-.17A2.7,2.7,0,0,1,25.2,19.9c-.48-.09-.83-.51-1.33-.51a2.44,2.44,0,0,0-1.51.38,11,11,0,0,1-2.47,1.3,3.23,3.23,0,0,1-1.69,0,5.2,5.2,0,0,1-2-2c-.23-.4-.43-.8-.65-1.2a1.22,1.22,0,0,0-.08-1.26,1,1,0,0,0-.56-.37,15.33,15.33,0,0,1-.63-3.14,9,9,0,0,1,.7-4Zm-.21,2.18h0a1.37,1.37,0,0,0,.44,1.39.67.67,0,0,0,.79-.08.46.46,0,0,0,.11-.35c0-.18-.23-.2-.35-.28-.4-.18-.56-.62-.75-1-.19-.05-.21.18-.24.3ZM19.11,11h0a2.44,2.44,0,0,1-.47.79,2.35,2.35,0,0,1-.63.38c-.11.51.59.82.95.51a1.39,1.39,0,0,0,.39-1.37C19.32,11.21,19.3,11,19.11,11Z"/><path class="seccls-4" d="M23.66,7.94a2.35,2.35,0,0,1-.5,1.46.62.62,0,0,1-.53-.62A2.17,2.17,0,0,0,23.66,7.94Z"/><path class="seccls-4" d="M14.41,8.16a4.27,4.27,0,0,0,.44.41c-.12.19-.23.38-.35.56A2.63,2.63,0,0,1,14.41,8.16Z"/><path class="seccls-3" d="M14.94,11.42a1.33,1.33,0,0,0,.89.85.59.59,0,0,1,0,.14c-.16.05-.34.13-.49,0A1,1,0,0,1,14.94,11.42Z"/><path class="seccls-3" d="M18.24,12.36a1.29,1.29,0,0,0,.89-.85.94.94,0,0,1-.32,1,.47.47,0,0,1-.53,0Z"/><path class="seccls-4" d="M13.53,16.27A4.24,4.24,0,0,1,14,14.11a15.59,15.59,0,0,0,.33,1.54,4.9,4.9,0,0,0,.21.92c.79-.11,1,1.16.35,1.48a.8.8,0,0,1-.92-.9A1.78,1.78,0,0,1,13.53,16.27Z"/><path class="seccls-4" d="M19.44,16.45a.72.72,0,0,1,1,.62c0,.37-.4.56-.72.59a1,1,0,0,1-.51-.23A.83.83,0,0,1,19.44,16.45Z"/><path class="seccls-5" d="M18.53,6.5a8,8,0,0,1,1.38,0c.42.11.85.22,1.26.37A5.33,5.33,0,0,1,23,8.24a1.9,1.9,0,0,0,.43-.42c.37-.49.51-.56.47.27a3,3,0,0,1-.29,1.13A5.14,5.14,0,0,1,24.06,11c0,.48,0,1,0,1.44a12.88,12.88,0,0,1-.26,1.51,4.48,4.48,0,0,0,.2.62,2.55,2.55,0,0,1-.18,1.88,3.36,3.36,0,0,1-1.17.84c-.08.21-.27.38-.28.62l.11-.09a1.83,1.83,0,0,1,.73-.08,2.67,2.67,0,0,1,1.11.42,3.59,3.59,0,0,1,1.27,1.61c.15.36.15.58-.34.52s-.95-.51-1.48-.52a3.94,3.94,0,0,0-2,.91,7.13,7.13,0,0,1-1.75.81,4.2,4.2,0,0,1-2.14-.11A4.17,4.17,0,0,1,16.31,20a10.07,10.07,0,0,1-1.06-1.75c-.11,0-.21.07-.32.09a.92.92,0,0,1-1.19-.52c-.09-.18-.11-.38-.2-.56a3.58,3.58,0,0,1-.15-2.85,9.55,9.55,0,0,1,.49-1,6.62,6.62,0,0,0,0-.89A13.4,13.4,0,0,1,14.19,10a3.06,3.06,0,0,0,.17-.59,2.52,2.52,0,0,1-.11-1.65c.09-.42.15-.41.29,0a.86.86,0,0,0,.51.57,4.67,4.67,0,0,1,1.49-1.19,5.32,5.32,0,0,1,2-.62ZM14.94,9.09h0a9,9,0,0,0-.7,4,15.33,15.33,0,0,0,.63,3.14,1,1,0,0,1,.56.37,1.22,1.22,0,0,1,.08,1.26c.22.4.42.8.65,1.2a5.2,5.2,0,0,0,2,2,3.23,3.23,0,0,0,1.69,0,11,11,0,0,0,2.47-1.3,2.44,2.44,0,0,1,1.51-.38c.5,0,.85.42,1.33.51a2.7,2.7,0,0,0-2.11-1.84c-.43-.09-.82.15-1.24.17a1.07,1.07,0,0,1,.18-.81,5.79,5.79,0,0,1-1.5.15.93.93,0,0,1-1.17.28,1,1,0,0,1,0-1.67c.27-.21.61-.07.9,0a2.33,2.33,0,0,0,1.63-.84c.08-.16.24.07.14.16a2.49,2.49,0,0,1-1.4,1,1.07,1.07,0,0,1,.08.84,5.23,5.23,0,0,0,1.52-.28,2.52,2.52,0,0,0,1.16-.67,2,2,0,0,0,.08-2.14c-.2-.27-.06-.61,0-.89A6.7,6.7,0,0,0,23.7,11a4.78,4.78,0,0,0-.29-1.41.83.83,0,0,0-.22.08c-.61.17-1.09-.85-.51-1.15a4.34,4.34,0,0,0-3.49-1.62,4.94,4.94,0,0,0-4.25,2.23Zm8.72-1.15h0a2.17,2.17,0,0,1-1,.84.62.62,0,0,0,.53.62,2.35,2.35,0,0,0,.5-1.46Zm-9.25.22h0a2.63,2.63,0,0,0,.09,1c.12-.18.23-.37.35-.56a4.27,4.27,0,0,1-.44-.41Zm-.88,8.11h0a1.78,1.78,0,0,0,.4.88.8.8,0,0,0,.92.9c.66-.32.44-1.59-.35-1.48a4.9,4.9,0,0,1-.21-.92A15.59,15.59,0,0,1,14,14.11a4.24,4.24,0,0,0-.43,2.16Zm5.91.18h0a.83.83,0,0,0-.2,1,1,1,0,0,0,.51.23c.32,0,.71-.22.72-.59A.72.72,0,0,0,19.44,16.45Z"/><path class="seccls-5" d="M14.73,11.27c0-.12,0-.35.24-.3.19.36.35.8.75,1,.12.08.34.1.35.28a.46.46,0,0,1-.11.35.67.67,0,0,1-.79.08,1.37,1.37,0,0,1-.44-1.39Zm.21.15h0a1,1,0,0,0,.38,1c.15.1.33,0,.49,0a.59.59,0,0,0,0-.14A1.33,1.33,0,0,1,14.94,11.42Z"/><path class="seccls-5" d="M19.11,11c.19,0,.21.17.24.31A1.39,1.39,0,0,1,19,12.72c-.36.31-1.06,0-.95-.51a2.35,2.35,0,0,0,.63-.38,2.44,2.44,0,0,0,.47-.79Zm-.87,1.32h0l0,.12a.47.47,0,0,0,.53,0,.94.94,0,0,0,.32-1A1.29,1.29,0,0,1,18.24,12.36Z"/>
</svg>